<?xml version="1.0" encoding="UTF-8"?>
<svg id="Layer_1" data-name="Layer 1" xmlns="http://www.w3.org/2000/svg" viewBox="0 0 911.68 503.4">
  <defs>
    <style>
      .cls-1 {
        fill: #d5cd2f;
      }

      .cls-1, .cls-2 {
        font-family: AbrilFatface-Regular, 'Abril Fatface';
        font-size: 204.19px;
      }

      .cls-1, .cls-2, .cls-3 {
        isolation: isolate;
      }

      .cls-2 {
        fill: #fff;
      }

      .cls-4 {
        fill: #060606;
      }

      .cls-5 {
        fill: #ed223b;
      }

      .cls-6 {
        fill: #660a12;
      }

      .cls-7 {
        fill: #929292;
      }

      .cls-8 {
        fill: #b6202b;
      }

      .cls-9 {
        fill: #8d8d8d;
      }

      .cls-10 {
        fill: #8c8c8c;
      }

      .cls-11 {
        fill: #939392;
      }

      .cls-12 {
        fill: #d12439;
      }

      .cls-13 {
        fill: #c7c7c7;
      }

      .cls-14 {
        fill: #c3c3c3;
      }

      .cls-15 {
        fill: #afaeae;
      }

      .cls-16 {
        fill: #c6c6c5;
      }

      .cls-17 {
        fill: #c6c5c5;
      }

      .cls-18 {
        fill: #090909;
      }

      .cls-19 {
        fill: #1d1d1d;
      }

      .cls-20 {
        fill: #1c1c1c;
      }

      .cls-21 {
        fill: #0e0e0e;
      }

      .cls-22 {
        fill: #191919;
      }

      .cls-23 {
        fill: #a41e25;
      }

      .cls-24 {
        fill: #828282;
      }

      .cls-25 {
        letter-spacing: -.02em;
      }
    </style>
  </defs>
  <g id="XmI2gK">
    <g>
      <path class="cls-4" d="m462.7,442.29h-119.02c-4.39-2.28-6.49-5.54-6.52-9.9-.05-7.91-3.27-15.73-.93-23.71,8.74-5.56,8.13-14.06,10.38-21.88,6.7-23.24,17.68-45.1,35.28-64.09,8.41-9.08,9.91-18.46,8.16-29.18-3.32-20.34-4.54-40.77-2.01-61.25.31-2.49-.44-4.74-1.33-7.01-.76-6.38,3.15-13.01-1.49-19.19-1.66-2.36-.43-4.8-.38-7.2.55-3.56-.79-6.93-1.62-10.35.08-2.4.57-5.2,2.24-6.7,4.65-4.17,3.43-8.45,1.79-12.99,5.37-6.75,12.65-11.2,22.21-12.94,3.28-.61,6.46-.74,9.15,1.36,2.99,7.06-2.58,12.18-5.82,17.82-2.06,2.47-6.53-.14-8.45,2.81,1.7.86,3.61.35,5.38.6,3.12.04,6.22.27,9.33.24,3.73-.44,7.7,1.12,11.12-1.01-2.53-4.13-7.26-7.39-6.44-12.6,3.52-3.16,15.72-5.14,20.99-2.16,4.05,2.29,7.72,1.61,11.7,1.75,2.55.93,4.09,2.58,4.93,4.74-3.54,13.25-9.4,25.87-14.99,38.56-7.54,12.35-6.62,26.01-7.21,39.08-.81,18.03-2.51,36.04-2.48,54.1.05,25.12,2.33,49.9,13.7,73.54.48,1,.47,2.08.48,3.13,4.85,13.7,11.36,26.89,17.91,40.07,1.53,3.09,4.44,5.97,2.62,9.71-5,4-2.65,11.05-8.67,14.64Z"/>
      <path d="m293.78,442.29c2.18-17.18,7.82-33.7,12.64-50.45,7.59-26.38,16.49-52.34,27.59-77.81,1.18-2.7,2.02-5.62,3.82-8,9.26-12.22,1-24.73,1.71-37.35-4.86.69-6.56,4.3-10.31,5.83-12.08,4.92-23.66,1.85-28.72-8.31-.77-1.55-1.69-3.09-.03-4.34,1.64-1.23,2.79.36,3.97,1.09,5.44,3.41,10.47,1.47,14.64-1.46,4.18-2.94,6.31-6.47,4.31-11.86-3.87-10.4-15.21-17.25-17.06-28.83-6.41,3.99,1.24,7.96-2.4,11.81-10.7-5.2-17.13-13.33-21.54-22.6-11.77-24.73,2.43-57.4,28.06-70.93,5.98-3.15,9.02-5.76,2.99-11.38-4.81-4.49-5.11-10.75-6.12-17.78,8.35,4.54,14.87,10.14,24.62,8.7,4.1-2.67,2.72-6.64,3.42-10.11.68-3.4,1.09-7,7-6.47,6.14,7.01,5.84,17.66-1.39,23.03-4.82,3.57-7.97,7.41-8.55,12.83-.44,4.07-4.2,6.58-7.72,8.81-13.66,8.65-22.5,19.96-28.24,33.33-5.11,11.88-1.31,20.14,12.71,25.8,5.63,2.27,9.19,5.95,12.32,10.63,7.75,11.6,10.37,26.53,20.5,35.4,14.18,12.41,12.6,26.68,16.05,39.46-.25-6.23-2.6-13.36-3.05-20.77-.35-5.75-3.64-10.87-9.12-15.04-8.98-6.85-9.68-17.7-1.02-24.85,6.71-5.54,6.05-10.52,1.64-16.36-9.06-11.98-8.59-17.87,2.36-27.94,3.3-3.03,4.35-6.41,3.6-10.33-.96-5-1.8-10.02-2.65-15.03-2.62-15.31,6.66-25.71,25.14-26.69,8.44-.45,14.36-1.05,13.02-10.1-.61-4.11,3-6.84,8.46-6.98,10.58,7.13,18.19,15.39,15.17,27.71-.34.88-.91,1.64-1.69,2.29-9.01,4.67-18.71.9-28.05,1.58-2.9-.03-5.64.82-8.47,1.14-6.92.79-7.84,4.54-7.08,9.41,1.38,8.89,4.94,17.33,7.4,26,1.03,3.64.34,6.55-3.3,8.32-8.95,4.35-7.31,10.52-2.8,15.65,5.75,6.54,4.39,12.27,1.95,19.33-6.45,18.63-3.68,36.47,9.9,52.68,1.1,1.31,2.03,2.71,2.46,4.3.28,3.2.34,6.28-1.95,9.22-15.41,19.78-23.79,41.83-29.58,64.69-1.26,4.96-2.78,9.87-4.78,14.67-9.29,9.52-14.42,21.2-23.12,31.05-2.64,2.98-1.58,6.6-1.44,10.09.4,9.58,1.35,19.38-8.08,26.94h-19.2Z"/>
      <path class="cls-10" d="m468.69,427.82c-7.8-15.79-16.74-31.23-21.46-47.98-1.34-7.65,5.24-5.38,8.99-4.29,10.18,2.96,20.4,5.7,30.78,8.14,9.76,2.3,20.11,2.29,29.59,5.52,6.95,17.54,14.23,35,19.06,53.07h-57.59c-7.19-2.99-11.73-7.18-9.37-14.47Z"/>
      <path class="cls-4" d="m468.69,427.82c4.8,4.07,5.96,9.77,9.37,14.47h-15.36c-.23-2.37-.15-4.8-.75-7.1-1.25-4.82,1.17-7.03,6.74-7.37Z"/>
      <path class="cls-20" d="m516.59,389.22c-9.78,4.06-19.26.42-28.58-1.23-11.09-1.96-22.04-4.62-32.45-8.59-2.64-1.01-5.81-2.88-8.32.45-6.66-14.97-11.43-30.17-13.65-46.21-4.05-29.35.5-58.51.71-87.74.09-13.64.79-27.68,7.39-40.72,2.16-.63,4.9-1.39,6.34.18,5.8,6.33,13.97,10.94,18.85,17.83,2.12,2.99,1.61,6.51-.09,10-4.22,8.64-8.48,17.28-12.35,26.03-1.41,3.19-5.41,7.42.36,9.86,5.34,2.26,11.3,1.48,15.96-2.28,2.12-1.71,3.03-4.05,3.87-6.36,5.58-15.46,7.44-31.09,4.77-47.21-1.03-6.22-1.5-12.76.94-19,.52-1.33,1.83-2.14,3.45-2.55,2.24-.09,3.61.89,4.42,2.53-.05,9.97,6.38,14.85,17.84,15.79,2.98.04,5.98-.33,8.88.53,6.54,1.31,13.43.62,19.84,2.54,11.86,1.12,23.59,3.23,35.56,3.62,4.37,1.47,11.19-.25,11.75,6.23-5.45,2.97-11.54.97-17.31,1.51-4.58.43-9.4-.9-13.73,1.34-2.6,0-5.21,0-7.81.01-7.67,2.95-16.13,2.15-24.12,3.56-4.3.18-5.68,2.26-5.6,5.62.06,2.83.33,6-4.72,6.25-3.81-.96-4-3.72-4.61-6.33-.47-2.01-.47-4.75-3.92-4.59-3.1.15-3.51,2.75-4.08,4.79-3.7,13.17-8.34,26.12-13.07,39.05-1.3,3.55-2.39,7.15-4.12,10.58-2.2,4.37-3.05,8.82.29,12.94,2.37,2.92.03,5.64.38,8.43,19.86,25.39,27.22,54.64,36.93,83.16Z"/>
      <path class="cls-12" d="m316.11,61.56c-11.5-4.06-21.8-9.7-33.72-16.51,20.74-3.79,39.31-5.6,57.92-7.47,13.71-1.38,27.67-1.27,41.12-4.34,6.47.51,10.32,3.48,13.62,8.18,6.88,9.81,18.8,14.52,30.63,19.05,3.12,1.19,6.77,1.71,8,4.99-.34,3.56,1.32,5.88,5.55,7.16,15.1,4.57,12.55,8.08,7.87,17.06-1.1,2.12-1.35,4.65-3.92,6.14-5.06,2.3-9.32-.75-13.73-1.69-36.44-7.72-72.31-16.87-106.13-30.89-2.25-.93-4.48-2.09-7.2-1.69Z"/>
      <path class="cls-12" d="m495.3,35.64c28.36,6.89,56.6,14.01,84,23.39,6.79,2.32,4.15,3.19.56,5.21-3.16,3.19-6.52,2.44-9.5.02-3.47-2.83-6.43-2.18-9.46.32,6.66-1.86,9.99-.32,8.8,4.55-1.04,4.27-1.97,8.94-7.21,11.55-3.71.32-6.85,1.59-9.43,3.85-1.63,1.42-3.52,2.51-5.76,3.15-8.12,2.77-16.07,5.87-24.07,8.91-16.3,6.03-33.15,5.07-50.12,2.88-5.62-2.19-10.47-5.44-17.29-5.95-6.26-.46-7.49-5.45-2.5-9.3,3.08-2.38,6.4-4.34,6.86-8.14,3.41-6.66,12.81-7.86,17.5-13.37,7.06-7.08,14.93-13.85,13.75-24.19.5-1.69,2.01-2.44,3.86-2.86Z"/>
      <path d="m479.66,306.06c-9.01-8.62-8.37-17.25-3.49-27.83,6.98-15.12,12.2-30.92,15.78-46.97.35-1.57.91-3.12,1.55-4.62,1.66-3.92,5.58-3.88,9.53-3.58,3.91.3,5.49,2.43,5.59,5.45.14,4,.14,8.01.21,12.01,6.49-.33,3.65-5.09,4.62-7.65,1.03-2.72-.38-6.07,2.83-8.41,8.98.48,18.11-1.3,26.94,1.3-.51,6.53.71,13.16-1.78,19.57-.6,1.55,1.25,4.28-2.2,4.38-2.49.07-3.08-2.03-3.74-3.97-.91-2.66-1.72-5.7-7.57-7.23,2.4,6.86,1.66,13.15,2.02,19.4.7,12.08-6.67,20.38-17.4,27.37-10.84,7.06-24.52,10.99-32.89,20.77Z"/>
      <path class="cls-23" d="m435.28.74c1.87.15,3.73.3,5.6.45.57.83.48,1.61-.28,2.32-7.22,2.32-15.21,1.5-22.26,3.82,8.29,2.08,16.27,4.67,24.99,4.17.92-.05,2.12-.5,2.7.08,5.92,5.9,17.51,9.5,18.87,16.1,2.09,10.15,10.06,14.51,17.65,20.12,1.91,2.65,1.79,5.11-1.01,7.32-11.09,2.45-22.22,2.67-33.39.56-1.64-.12-3.32-.05-4.94-.35-6.1-3-12.78-4.56-19.78-5.24-11.7-2.91-21.08-8.92-30.19-15.41-3.71-2.64-3.74-6.48-5.67-9.67,3.02-8.09,6.04-16.18,9.07-24.26,12.88-.98,25.77-.99,38.65,0Z"/>
      <path class="cls-6" d="m560.48,78.83c3.27-3.71,1.99-8.8,6.25-12.93-7.09.16-11.91,6.46-19.94,3.1,10.47-7.56,20.56-11.69,33.05-4.77,6.63,3.69,8.46,8.05,6.06,14.94-2.68,7.69-3.21,15.95-4.09,24.01-1.41,12.94.64,25.58,5.95,37.83-2.83,7.09-4.63,7.7-16.85,5.69-3.84-.66-6.43-2.57-6.72-5.85-1.42-16.53-12.55-30.46-17.56-46.02-1.06-3.28-3.53-6.47.37-9.55,1.23-1.13,2.46-2.26,3.69-3.38,5.99-.35,5.56,4.65,9.19,7.67-4.86-4.49-3.99-7.79.59-10.73Z"/>
      <path d="m472.33,96.16c17.51,3.18,34.61,1.43,51.47-3.03,6.98,2.13,9.68,5.8,6.09,11.74-5.58,3.06-10.83,7-18.39,5.07-11.46-4.65-23.91-2.5-35.87-3.72-15.18-1.54-30.74-.09-45.52-5.15-18.57-6.37-38.78-8.36-57.55-14.6-9.29-3.09-16.01,3.04-21.6,8.86-2.67,2.78-3.54,7.17-9.2,7.35-2.54,3.4-1.71,7.23-2.01,10.91-.34,4.12-1.93,6.88-7.79,5.03-5.57-13.44,1.67-24.04,11.28-33.84,4.95-5.05,10.72-9.6,17.98-12.49,2.75-3.49,6.57-2.05,9.78-1.08,21.29,6.46,43.19,11.15,65.03,16.02,12.19,2.72,24.3,5.67,36.3,8.93Z"/>
      <path class="cls-10" d="m581.82,222.73c-3.88-1.04-7.76-2.07-11.64-3.11-.1-1.08-.54-2.02-1.52-2.78-10.18-7.96-9.65-13.94,1.7-20.57,4.39-1.73,1.94-5.33,3.06-7.94-1.74-13.37,5.71-24.06,14.34-34.42,3.23-3.88,6.35-3.76,9.56-.04,1,.26,1.72.69,1.48,1.71.42,6.75,3.37,12.92,6.21,19.12,6.21,13.34,9.22,27.39,13.11,41.23,1.45,5.15.14,9.4-7.66,9.82-5.71-2.55-11.88-.79-17.8-1.35-3.66-.34-7.71,1.06-10.84-1.68Z"/>
      <path class="cls-4" d="m387.57,20.4c10.53,10.47,23.01,18.43,36.1,25.61,5.15,5.79,12.28,5.33,19.18,5.57,1.27.02,2.55.04,3.82.07,4.11,4.79,9.27,6.67,15.69,5.35,6.89-1.42,14.14-1.48,20.46-5.03,2.65-4.39,4.12-10.92,11.88-6,4.77,12.47,2.62,17.19-13.45,29.6-.65.56-1.41.86-2.29.88-2.21-.19-4.17.86-6.28,1.22-2.83.22-5.63,0-8.39-.58-4.55-6.51-10.18-1.74-15.41-1.33-6.43-1.33-14.33.45-17.57-7.61-13.22-5.21-26.45-10.34-36.29-20.96-5.03-5.43-7.54-12.65-13.59-17.33,5.87-.87,4.14-6.27,6.13-9.45Z"/>
      <path class="cls-12" d="m494.71,47.29c-4.97.83-7.57,4.59-11.61,6.56-.65.66-1.27.62-1.87-.05-.04-2.26-.3-4.48-1.91-6.42-5.94-5.49-5.71-12.58-6.4-19.17-.76-7.17-4.69-11.07-12.89-12.63-6.83-1.3-13.64-2.79-19.23-6.68-1.07-2.14-.83-4.26.09-6.38,0-.44,0-.88,0-1.32,14.87-.6,29.44,1.84,44.15,2.93,3.46.26,3.49,1.95,4.07,4.23,3.08,11.94,2.78,24.37,7.44,36.07-.61.95-1.22,1.9-1.83,2.85Z"/>
      <path class="cls-5" d="m472.33,96.16c-31.89-3.24-62.45-10.91-92.77-19.36-6.05-1.68-11.88-3.97-18.34-4.51-12.31-4.83-24.67-9.58-36.91-14.53-3.33-1.35-6.3-3.31-9.44-5,3.29-3.29,6.55-.78,9.45.31,33.32,12.57,68.01,21.66,103.55,28.64,4.63.91,9.15,2.19,13.73,3.31,7.42-3.17,12.73-10.58,23.02-7.98,3.12,5.02-1.92,5.74-5.48,7.28-2.25.98-5.09,1.86-4.6,4.48.53,2.79,3.8,2.14,6.13,2.74,4.13,1.06,9.99-.78,11.67,4.61Z"/>
      <path class="cls-24" d="m597.32,153.88c-4.66-1.56-5.81,1.49-7.86,3.87-4.95,5.73-4.29,13.93-11.89,18.5-1.27.77-1.29,2.62-.02,3.6,4.95,3.81,1.35,6.5-1.54,9.32-1.15.54-2.23.46-3.25-.23-7.34-11.76-10.39-23.82-3.65-36.56,7.09-2.56,13.91-6.42,22.22-3.33,4.09-.2,6.53,1.03,5.99,4.83Z"/>
      <path class="cls-16" d="m591.33,149.05c-5.85,3.31-12.64,3.94-19.38,4.72-4.97-2.69-6.43-5.79-1.58-9.6,6.06-.06,12.52,1.45,17.4-3.16,2.36,2.32,3.72,4.94,3.56,8.03Z"/>
      <path class="cls-21" d="m581.82,222.73c6.53.04,13.05.07,19.58.14,3.43.04,6.96-.08,9.05,2.89-1.18,0-2.36,0-3.55,0-15.5-.86-31.01-.93-46.51.06-3.12-.02-6.25-.05-9.37-.07,4.58-4.88,11.03-2.42,16.69-2.86,4.67-.36,9.4-.13,14.11-.16Z"/>
      <path class="cls-14" d="m560.4,225.82c15.5-2.29,31-2.19,46.51-.06-15.5.02-31.01.04-46.51.06Z"/>
      <path class="cls-24" d="m605.01,174.7c-5.43-5.61-7.25-12.04-6.21-19.12,1.86,6.42,6.08,12.31,6.21,19.12Z"/>
      <path class="cls-10" d="m572.15,198.75c-8.43,4.31-8.28,9.28-1.58,14.7,2.74,2.22,3.95,4.3-.38,6.18-12.39.8-24.2-2.94-36.45-3.25-2.6-2.54-2.61-5.04.11-7.52,1.57-1.25,3.52-1.68,5.59-1.81,3.78-.93,7.94-.14,11.58-1.73,1.95-.53,3.33-1.47,3.42-3.3-.27-.81-.62-1.55-1.69-1.88-15.18-2.11-29.07-6.68-41.27-14.55-1.65-.52-3.31-1.04-5.09-1.17-3.28,0-5.18-1.85-7.02-3.7-1.96-1.96-3.74-1.62-5.54.12-4.41,3.22-4.19,9.21-9.97,11.58-2.52,8.96-2.63,17.92-.07,26.88,4.82,16.86-1.23,32.66-6.75,48.52-1.59,4.57-5.2,6.36-10.68,6.26-5.1-.1-10.22-.17-15.31.05-7.78.33-8.58-2.39-5.81-7.77,5.91-11.49,11.22-23.19,17.13-34.68,2.47-4.8,2-8.62-2.69-12.2-6.1-4.67-12.01-9.53-17.99-14.3,5.68-11.75,11.36-23.5,17.03-35.26-3.06-9.94,4.19-17.82,7.58-26.47.61-2.42,1.82-4.59,3.9-6.37,3.29-1.85,6.37-.37,8.87.09-1.65-1.17-3.3-3.15-4.86-5.21-.61-2.19.73-3.94,1.81-5.76.64-.69,1.44-1.21,2.4-1.56,1.48-.43,2.93-.93,4.55-.81,8.87-.49,15.54,3.71,22.33,7.46,2.47,1.37,4,3.86,3.12,6.24-3.61,9.71-5.95,19.96-15.08,27.57-9.26.29-10.65-1.57-8.76-10.91-9.51,3.05-4.81,11.88-9.08,17.7,3.82-5.08,8.54-8.36,16.12-5.9,5.99-3.83,11.54-3.44,17.04.88,6.97,5.47,15.07,8.76,24.97,7.97,2.97,1.6,5.29,4.18,9.26,4.3,6.15,2.73,13.06,3.42,19.59,5.12,3.48.9,7.52,1.04,9.78,4.05,1.5,3.5,3.23,6.99-.11,10.45Z"/>
      <path class="cls-20" d="m340.16,408.68c1.34-2.44,1.7-5,1.66-7.69-.15-9.12-.11-18.24-.14-27.36,6.88-27.69,14.25-55.24,33.22-79.4,1.86-2.37,2.98-4.7,1.5-7.46-3.74-12.28-7.76-24.5-9.45-37.17-1.48-11.07,12.33-25.33,24.75-25.16-1.11,28.02.81,55.92,4.56,83.75.47,3.49-.38,6.07-3.08,8.74-24.52,24.25-37.69,52.86-45.96,83.38-.9,3.33.84,8.89-7.06,8.37Z"/>
      <path class="cls-9" d="m391.7,224.44c-4.87,3.8-8.84,8.3-14.41,11.6-5.02,2.98-6.31,7.61-5.7,12.83,1.33,11.39,1.97,22.84,5.25,34.03.35,1.19-.27,2.58-.44,3.88-5.5-10.22-9.94-20.68-13.26-31.61-3.43-11.26-2.09-21.73,3.54-31.89,2.54-4.58,2.13-7.94-1.73-11.56-1.88-1.77-3.25-3.95-4.66-6.04-6.12-9.03-6.05-9.86,5.26-14.14,5.13-1.94,5.42-4.03,3.91-8.04-2.2-5.83-3.61-11.87-5.06-17.87-3.66-15.21-2.34-16.81,15.68-19.87,6.47-1.36,7.33,2.41,8.22,6.22,1.52,6.58-1.32,13.08-.45,19.64,3.39,5.56-1.66,10.49-1.71,15.79.57,3.79,1.13,7.58,1.7,11.38,1.9,2.73.32,4.11-2.82,4.16-3.63.06-6.18-1.75-6.53-4.77-.32-2.78.58-5.58.94-7.29.21,4.78-3.93,9.94-3.65,15.82.04.79.54,1.5,1.8,2.03,4.02-.69,6.27-6.63,12.06-3.5,1.73,6.32,3.8,12.61,2.05,19.19Z"/>
      <path class="cls-15" d="m408.72,145.85c.18-.49.32-.98.43-1.48.57-6.61,5.23-12.37,5.59-19.07.14-2.66,2.22-4.33,5.74-4.26,7.17,5.99,15.67,10.47,24.15,15,3.33,1.78,7.56,3.18,7.46,7.46-.36,4.47.97,9.21-3,13.11-9.51,1.94-19.21,2.4-28.96,2.4-.52-.14-1.04-.27-1.56-.41-3.23.14-6.46.29-9.7.43-7.82-4.18-7.84-6.06-.15-13.19Z"/>
      <path class="cls-20" d="m408.72,145.85c.37,4.39-3.76,8.82.15,13.19-6.38,3.63-12.76,7.26-19.14,10.89-1.25,1.12-1.52,3.05-3.87,3.26-3.34-5.96-1.34-12.31-1.85-18.47-.28-3.34.44-6.91-3.94-8.97,9.56-3.06,19.08,1.72,28.64.1Z"/>
      <path class="cls-10" d="m389.65,205.24c-6.46,3.2-7.64,9.43-10.97,14.42-10.31-6.04-11.13-13.43-5.69-21.43,3.84-5.64,2.65-11.91,4.23-18.61,6.8,3.53,6.4,8.1,5.44,13.16-1.11,5.82-.3,6.43,5.19,6.01,1.66,1.94,1.91,4.16,1.81,6.45Z"/>
      <path class="cls-20" d="m447.32,155.44c-.02-4.27.19-8.52,2.1-12.57,7.34-3.09,14.48-4.17,20.96,1.45-3.89,8.53-7.77,17.06-11.66,25.59-1.22-1.06-2.45-2.12-3.67-3.17-5.17-1.06-10.18-2.26-9.95-8,.27-1.32,1.2-2.33,2.22-3.3Z"/>
      <path class="cls-7" d="m426.02,165.33c1.38,4.84,5.55,8.44,8.16,12.74-3.16,5.35-9.72.25-13.69,3.11-3.8-.02-7.6-.04-11.4-.06-2.67-2.73-1.85-4.81,1.69-6.39,2.59-5.37,5.19-10.75,7.78-16.12,0,0-.13.07-.13.07,1.83-.79,3.38.08,4.99.59,2.44,1.55,1.53,4.1,2.59,6.06Z"/>
      <path class="cls-4" d="m426.02,165.33c-1.27-1.64-2.55-3.29-3.82-4.93,7.98-5.03,16.53-4,25.21-1.68,2.55,2.67,5.09,5.35,7.64,8.02-8.51,2.89-16.29-1.66-24.53-1.74-1.57-.02-3.05-.45-4.5.33Z"/>
      <path class="cls-4" d="m410.79,174.73c-.57,2.13-1.13,4.26-1.7,6.39-1.34.67-2.8,1.22-3.98,2.05-2.26,1.6-4.65,3.16-7.56,1.59-3.7-1.98-.4-4.11.29-6.15.08-.25.25-.48.34-.73q3.62-9.05,12.61-3.15Z"/>
      <path class="cls-4" d="m385.87,173.19c.69-1.58,1.96-2.68,3.87-3.26,7.51,7.08-1.62,11.77-3.6,17.48-.09-4.74-.18-9.49-.27-14.23Z"/>
      <path class="cls-4" d="m420.49,181.18c4.56-1.04,9.12-2.07,13.69-3.11,2.97,1.41,5.94,2.82,10.35,4.92-9.44,4.72-16.27-4.7-24.04-1.8Z"/>
      <path class="cls-4" d="m440.29,399.88c-2.29.02-3.59-.9-3.84-2.7-.28-2.07.67-3.64,3.32-3.88,2.09-.19,3.66.66,3.82,2.55.16,2.01-.9,3.48-3.3,4.04Z"/>
      <path d="m341.77,102.68c2.75-6.91,6.46-13.1,13.98-17.58,8.27-4.92,15.23-4.29,24.64-.99,15.14,5.31,31.65,7.86,47.4,12.03,23.15,6.12,47,7.54,71.01,8.13,4.52.11,9.05-.04,12.18,3.42-.29.37-.58.75-.85,1.13-6.77,4.43-14.44,4.4-22.33,3-2.13-.38-3.99-1.35-6.41-1.02-18.01,2.44-36.56-.74-54.31,2.87-9.42,1.92-18.29,5.52-28.35,4.19-1.07.02-2.1.21-3.08.58-3.59,4-4.52,7.77-.6,12.36,3.97,4.64.64,6.82-5.14,7.04-5.11.2-10.27-.13-15.33.36-15.43,1.5-22.33,9.29-19.97,22.08.68,3.69.79,7.5,2.02,11.05,2.9,8.37,2.68,15.25-7.61,20.59-5.98,3.11-5.06,12.37.26,18.75,3.79,4.54,8.59,8.88,6.66,15.12-1,3.22-3.84,5.28-6.93,7.37-6.55,4.43-7.8,13.2-1.66,17.71,11.91,8.75,11.46,21.08,13.95,32.24,1.29,5.79,3.13,12.53-.6,18.7-1.16,1.92-1.68,4.48-4.9,4.07-3.55-.45-4.83-3.36-3.75-5.55,4.9-9.92-2.06-19.46-.89-29.23.42-3.53-.9-8.22-4.9-8.88-9.74-1.61-10.27-7.76-12.29-13.72-3.98-11.74-13.36-21.43-18.34-32.83-1.36-3.11-4.75-6.04-8.4-6-9.08.09-13.66-4.59-15.94-10.37-2.7-6.84-2.22-14.13.66-21.19,5.93-14.53,17.51-25.15,30.55-35.79,8-6.52,10.5-17.64,18.47-25.55,2.88-2.86.68-9.28.8-14.08Z"/>
      <path class="cls-11" d="m395.66,118.44c0-.36-.04-.71-.13-1.06,8.99-1.27,18.05-.94,27.12-.74,1.23,2.4.19,4.01-2.49,5.06-.52,2.29-.96,4.6-1.58,6.88-1.26,4.59,4.39,12.13-7.51,12.37-.67.01-1.27,2.24-1.9,3.43,1.17-10.7-8.73-17.39-13.5-25.94Z"/>
      <path class="cls-10" d="m541.41,210.01h-5.76c-7.29-.07-14.04,2.35-21.13,3.22-3.2-.02-6.4-.03-9.59-.05-7.22-5.56-18.14-8.66-18.24-18.99-.97-3.39-.56-6.51,2.43-9.16,9.67-.48,20.2-3.08,24.28,8.31.96,2.67,4.86,3.1,8.13,3,4.49-.14,8.81.65,13.09,1.59,8.82,1.93,10.15,4.37,6.8,12.08Z"/>
      <path class="cls-10" d="m487.65,195.56c1.83,4.06,10.24,1.59,10.4,7.31,9,.32,6.2,6.12,6.88,10.31q-19.17-.74-19.16-17.55c.57-1.12,1.2-1.14,1.88-.07Z"/>
      <path class="cls-10" d="m514.52,213.23c7.22-6.92,13.03-7.8,21.13-3.22-.64,2.12-1.28,4.25-1.92,6.37-6.36-1.25-13.1-.85-19.21-3.15Z"/>
      <path class="cls-13" d="m516.28,224.46c.9,6.09-.32,11.95-2.91,17.63-.5,1.09-.93,2.98-2.91,2.48-2.24-.57-1.59-2.54-1.63-4.05,3.11-3.23,1.68-7.07,1.84-10.64.15-3.27.68-5.81,5.61-5.43Z"/>
      <path class="cls-19" d="m487.65,195.56c-.63.02-1.25.04-1.88.07-.64-1.07-1.27-2.15-1.91-3.22,1.91-4.8,3.82-9.6,5.73-14.4,3.95-.36,3.88,1.94,3.96,4.15-.53,1.83-2.51,2.63-3.95,3.81-1.77,3.04-2,6.29-1.95,9.58Z"/>
      <path class="cls-8" d="m442.82,7.37c8.42,3.56,17.94,3.65,26.78,5.92,4.45,1.15,7.4,2.81,7.67,7,.59,9.03,1.35,18.06,2.03,27.09-13.29-.81-16.76-3.43-17.24-13.56-.2-4.36-.57-7.93-7.6-7.7-4.14.14-6.29-2.45-6.45-5.72-.25-5.2-3.64-6.07-8.96-5.29-4.86.71-9.47-.33-13.78-2.27-3.89-1.75-7.64-2.36-11.51.22-3.59,2.39-7.42,2.4-9.56-1.26-2.22-3.79,2.33-4.08,4.92-5.26,1.67-.76,3.29-1.6,4.93-2.41,9.88-.74,19.63-.68,28.76,3.23Z"/>
      <path class="cls-4" d="m481.22,53.8c.62.02,1.25.03,1.87.05-8.21,1.15-14.55,6.51-23.02,7.11-7.71.54-13.46-.96-13.41-8.71,11.44,1.68,22.99,1.76,34.55,1.56Z"/>
      <path class="cls-12" d="m445.13,6.24c-9.84.47-19.05-2.89-28.76-3.23,8.71-3.16,17.89-.95,26.82-1.62.65,1.62,1.29,3.23,1.94,4.85Z"/>
      <path class="cls-4" d="m470.38,74.72c-20.52,5.05-24.04,4.34-31.89-6.42,10.99,1.36,22.15,2.34,31.89,6.42Z"/>
      <path class="cls-16" d="m527.72,104.05c.83,5.96.69,11.72-4.59,16.5-1.89,1.71-2.87,3.52-.65,5.61,16.55,15.57,18.33,34.4,17.12,53.9-.05.79.15,1.59.23,2.38-4.09-.62-6.45-2.51-6.47-6.12-5.16-.97-5.72-4.34-6.17-7.93-1.05-8.47-2.75-16.82-6.32-24.88-2.93-6.6-7.67-11.54-15.59-14.21-2.66-.9-5.38-1.78-7.67-3.22-3.34-2.11-6.67-4.44-5.73-8.5.99-4.31,5.03-5.32,9.52-5.4,4.25-.08,6.6-2.74,9.61-4.52,0,0-.03.04-.03.04,5.58-1.21,11.15-2.42,16.73-3.63Z"/>
      <path class="cls-24" d="m580.98,212.15c2.93-1.27,4.43,2.34,6.63.49,1.95-1.64.76-3.49-.2-5.16-2.77-4.8-1.82-9.92-1.73-14.92.06-3.16-.12-7.64,5.95-2.82,2.42,1.92,3.04-.33,3.66-1.74,1.1-2.46,2.91-3.56,5.81-1.97,2.74,1.5,4.33,4.55,2.13,6.11-6.76,4.83-3.53,11.38-5.23,17.02-.95,3.14.94,7.32-4.94,8.32-5.36.91-9.27-.76-12.09-5.34Z"/>
      <path class="cls-22" d="m572.12,189.41c.51-.21,1.04-.33,1.61-.36.76.04,1.52.08,2.28.12-.35,4.36.5,8.65,1.82,13.26-3.67-.07-3.9-2.68-5.68-3.69,0-3.11-.02-6.22-.02-9.34Z"/>
      <path class="cls-24" d="m596.17,180.5c-2.07-.04-2.41-1.32-2.56-2.61-.15-1.32.11-2.74,1.75-3.27,1.99-.64,2.85.55,3,1.97.16,1.58-.11,3.12-2.19,3.9Z"/>
      <path class="cls-4" d="m463.94,71.38c-4.47-.53-8.93-1.06-13.4-1.59,5.09-3.12,10-5.17,13.4,1.59Z"/>
      <path class="cls-4" d="m479.3,72.96c-1.92-.51-3.83-1.01-5.75-1.52-.43-1.83-2.86-4.85.84-5.01,4.26-.19,3.69,4.06,4.9,6.53Z"/>
      <path d="m511.01,107.65c.27,9.81-11.46,6.21-16.29,9.97,2.42,7.87,11.89,6.93,18.04,9.5,3.71,1.55,5.9,3.09,7.58,5.69,7.33,11.41,10.97,23.63,11.48,36.56.09,2.33,1.01,4.64,1.54,6.96-6.73,3.82-15.77,2.39-24.89-4.56-5.02-3.83-9.84-6.63-16.71-3.47-1.49-.96-1.4-2.05-.38-3.22,3.23-6.87,5.85-13.99,9.85-20.53,4.6-7.53,2.14-11.7-6.88-14.38-4.13-1.22-7.8-3.54-12.45-3.48-.45-8.36-6.35-10.14-14.98-8.66-11.9,2.04-23.96,1.39-35.98,1.43-3.1.01-6.53.59-8.5-2.34-5.33-.29-10.52-.35-12.58,7.64-2.66-8.33-8.39-8.06-14.32-7.39,14.38-.66,26.79-9.28,40.61-8.98,18.01.38,36.06-2.86,53.99.27,7.08,1.24,13.93-.54,20.89-1.02Z"/>
      <path class="cls-16" d="m422.44,117.13c18.43.13,36.82-.14,55.04-2.99,6.14-.96,10.63,0,6.97,6.64-1.05,1.9-1.71,3.95-2.54,5.92-1.28,0-2.55-.02-3.83-.02-1.16-.47-2.52-.48-3.62-1.08-1.83-2.04-3.83-3.45-7.16-2.03-3.05,1.31-6.17.42-9.24-.13-5.96-1.94-12.21-1.46-18.39-1.55,5.68.14,11.47-.72,16.96,1.28.84.17,1.68.34,2.53.48,5.29,5.71,12.61,2.19,19,2.91-.74,1.62-1.48,3.24-2.21,4.86.97,2.92.6,5.37-3.32,6.57-.74,2.11-1.49,4.21-2.23,6.32-6.99-.43-14.18,1.1-20.96-1.45-11.29-5.58-23.47-10.31-29.27-21.17.76-1.53,1.52-3.05,2.28-4.57Z"/>
      <path class="cls-10" d="m477.98,206.41c0,3.41.13,4.75-.02,6.06-.48,4.25-.67,9.5-6.23,10.67-6.02,1.27-6.2-4.86-9.29-7.44-10.83-9.03-5.33-18.99-3.07-28.73.63-2.73,2.45-6.03,7.09-4.99,3.9.88,8.44,2.01,9.15,6.05,1.19,6.78,1.8,13.63,2.39,18.38Z"/>
      <path class="cls-10" d="m489.59,185.98c.62-1.07,1.24-2.15,1.86-3.22,5.12-5.51,11.39-2.32,17.33-1.59,1.28.53,2.56,1.07,3.84,1.6,5.63,6.69,11.84,13.01,22.77,12.7,7.15-.2,14.26,2.45,21.39.11,5.29.46,5.68,2.97,3.84,6.41-5.13.96-5.17,5.31-7.68,8.01-3.84.95-7.68.95-11.52,0-2.27-11.25-12.96-10.7-22.76-11.16-5.81-.28-12.03.66-10.9-7.22.41-2.86-3.05-4.07-6.17-3.54-4.49.76-8.06-1.17-11.98-2.11Z"/>
      <path class="cls-10" d="m491.38,165.09c.12,1.07.25,2.15.37,3.22-6.76-.92-10.42,1.11-10.27,7.2.06,2.33-.51,6.28-3.59,5.31-3.89-1.23-9.15-.9-11.7-4.36-2.03-2.75-.43-5.27,2.52-6.85,3.66-1.96,6.26-3.82,2.6-7.5-1.74-1.75-1.09-3.96.75-5.01,7.18-4.1,12.41-10.59,22.22-13-.53,7.48-10.96,13.56-2.91,21Z"/>
      <path class="cls-10" d="m556.77,195.59c-12.6,2.38-25.26,3.7-37-2.16-4.4-2.2-9.85-4.76-7.15-10.66,3.06,1.88,5.95,2.07,9.7.73,5.53-1.97,9.21-.41,6.57,5.01-2.09,4.29,1.2,4.75,4.25,5.09,7.84.87,15.75,1.35,23.63,1.99Z"/>
      <path class="cls-10" d="m472.61,138.01c1.11-2.19,2.22-4.38,3.32-6.57,4.05,2.79,8.13,5.15,12.6-.6,2.39,4.63.2,8.25-2.4,9.94-4.97,3.23-8.99-1.62-13.52-2.77Z"/>
      <path class="cls-10" d="m508.77,181.17c-5.77.53-11.55,1.06-17.33,1.59-.62-1.58-1.25-3.16-1.87-4.75,1.51-2.58,2.99-5.21,6.55-6.25,2.8-.82,6.06-1.63,5.47,2.42-.69,4.76,4.04,5.2,7.17,6.99Z"/>
      <path class="cls-10" d="m552.93,210.01c-.25-4.54.86-8.18,7.68-8.01-1.69,2.17-2.79,4.33-2.82,7.12-.05,4.67-2.59,2.96-4.86.89Z"/>
      <path class="cls-10" d="m374.75,150.65c2.99-.06,3.48,1.75,2.72,3.2-2.55,4.9-2.41,9.62-.19,14.56.71,1.57-.52,3.27-2.67,3.61-2.43.39-3.73-1.14-3.33-2.84,1.01-4.33-.49-8.35-1.34-12.5-.61-2.96,1.72-4.9,4.82-6.03Z"/>
      <path class="cls-4" d="m447.41,158.72c-8.44.14-16.97-.58-25.21,1.68-1.25-.57-2.51-1.15-3.76-1.72,9.07-4.53,19.16-2.77,28.88-3.24.03,1.09.06,2.19.09,3.28Z"/>
      <path class="cls-18" d="m421.16,166.96c3.11,2.05,5.52,4.63,5.47,7.8-.05,3.17-3.65,3.04-6.44,2.99-2.8-.05-5.19-.94-4.31-3.77.83-2.68,1.57-5.6,5.29-7.02Z"/>
      <path class="cls-17" d="m457.06,125.08c-9.93-.53-20.12,1.35-30.53-1.56,7.59-6.2,25.07-6.68,32.57-1.53,1.02,1.81-.76,2.34-2.04,3.1Z"/>
    </g>
  </g>
  <g id="DiscoverIt" class="cls-3">
    <text class="cls-2" transform="translate(0 443.98) scale(.94 1)"><tspan x="0" y="0">Disc</tspan><tspan class="cls-25" x="406.13" y="0">ov</tspan><tspan x="615.43" y="0">er</tspan></text>
    <text class="cls-1" transform="translate(768.65 443.98) scale(.94 1)"><tspan x="0" y="0">It</tspan></text>
  </g>
  <path class="cls-12" d="m451,128.23c0-.45,2.2-1.4,6.61-3.29,3.78-1.62,5.12-2.04,6.38-1.06.71.55,1.05,1.28,1.91,1.27,1.23-.02,1.55-1.52,3.01-2.23,1.57-.76,3.02.07,4.44.89,1.14.65,1.11.99,2.55,1.83.74.43,1.7.99,2.84,1.2,2.32.43,4.24-.79,4.25-.71,0,.08-2.18,1.34-5.65,2.42-4.78,1.48-8.4,1.51-9.56,1.5-2.32-.03-2.21-.32-6.16-.76-7.12-.79-10.61-.2-10.62-1.04Z"/>
</svg>